<svg xmlns="http://www.w3.org/2000/svg" viewBox="0 0 300 200" width="600" height="400">
    <defs>
      <!-- Rich 2026 dark atmospheric background gradient -->
      <linearGradient id="bg_ov_plots" x1="0%" y1="0%" x2="100%" y2="100%">
        <stop offset="0%" stop-color="#052919"/>
        <stop offset="65%" stop-color="#0D5233"/>
        <stop offset="100%" stop-color="#050806"/>
      </linearGradient>

      <!-- Ambient radial lighting vignette -->
      <radialGradient id="glow_ov_plots" cx="75%" cy="35%" r="65%">
        <stop offset="0%" stop-color="#10B981" stop-opacity="0.45"/>
        <stop offset="50%" stop-color="#10B981" stop-opacity="0.12"/>
        <stop offset="100%" stop-color="#10B981" stop-opacity="0.0"/>
      </radialGradient>

      <!-- Precision tech grid overlay -->
      <pattern id="grid_ov_plots" width="16" height="16" patternUnits="userSpaceOnUse">
        <path d="M 16 0 L 0 0 0 16" fill="none" stroke="#10B981" stroke-width="0.5" opacity="0.09"/>
      </pattern>
    </defs>

    <!-- Base Canvas -->
    <rect width="300" height="200" fill="url(#bg_ov_plots)"/>
    <rect width="300" height="200" fill="url(#grid_ov_plots)"/>
    <rect width="300" height="200" fill="url(#glow_ov_plots)"/>

    <!-- Tailored Vector Scene Artwork -->
    
            <path d="M160,200 L160,60" stroke="#10B981" stroke-width="8" opacity="0.4" stroke-linecap="round"/>
            <path d="M160,90 Q185,75 200,85" stroke="#10B981" stroke-width="3" fill="none" opacity="0.7"/>
          
            <path d="M186,200 L186,40" stroke="#10B981" stroke-width="8" opacity="0.6000000000000001" stroke-linecap="round"/>
            <path d="M186,70 Q211,55 226,65" stroke="#10B981" stroke-width="3" fill="none" opacity="0.7"/>
          
            <path d="M212,200 L212,20" stroke="#10B981" stroke-width="8" opacity="0.8" stroke-linecap="round"/>
            <path d="M212,50 Q237,35 252,45" stroke="#10B981" stroke-width="3" fill="none" opacity="0.7"/>
          
            <path d="M238,200 L238,60" stroke="#10B981" stroke-width="8" opacity="0.4" stroke-linecap="round"/>
            <path d="M238,90 Q263,75 278,85" stroke="#10B981" stroke-width="3" fill="none" opacity="0.7"/>
          
            <path d="M264,200 L264,40" stroke="#10B981" stroke-width="8" opacity="0.6000000000000001" stroke-linecap="round"/>
            <path d="M264,70 Q289,55 304,65" stroke="#10B981" stroke-width="3" fill="none" opacity="0.7"/>
          
            <path d="M290,200 L290,20" stroke="#10B981" stroke-width="8" opacity="0.8" stroke-linecap="round"/>
            <path d="M290,50 Q315,35 330,45" stroke="#10B981" stroke-width="3" fill="none" opacity="0.7"/>
          
          <circle cx="210" cy="95" r="35" fill="#10B981" opacity="0.7"/>
        
          <circle cx="210" cy="95" r="35" fill="#10B981" opacity="0.7"/>
        

    <!-- Top Glow Rim Accent Line -->
    <line x1="0" y1="0" x2="300" y2="0" stroke="#10B981" stroke-width="2.5" opacity="0.8"/>
  </svg>